<?xml version="1.0" encoding="utf-8"?>
<!-- Generator: Adobe Illustrator 22.1.0, SVG Export Plug-In . SVG Version: 6.00 Build 0)  -->
<svg version="1.1" id="Layer_1" xmlns="http://www.w3.org/2000/svg" xmlns:xlink="http://www.w3.org/1999/xlink" x="0px" y="0px"
	 viewBox="0 0 25 25" style="enable-background:new 0 0 25 25;" xml:space="preserve">
<style type="text/css">
	.st72{fill:none;stroke:#758491;stroke-linecap:round;stroke-miterlimit:10;}
</style>
<g>
	<path class="st72" d="M20.488,7.753l1.238,1.415l-0.018,11.481c-0.003,1.635-1.328,2.958-2.963,2.958H9.096
		c-0.591,0-1.116-0.284-1.445-0.723"/>
	<path class="st72" d="M16.287,19.721H5.315c-1.128,0-2.042-0.915-2.041-2.042L3.286,3.463C3.287,2.34,4.197,1.428,5.321,1.425
		l10.03-0.03l2.998,2.998l-0.021,13.292C18.325,18.809,17.412,19.721,16.287,19.721z"/>
	<polyline class="st72" points="16.463,6.135 13.87,6.135 13.87,3.541 	"/>
	<line class="st72" x1="14.06" y1="10.611" x2="7.043" y2="10.611"/>
	<line class="st72" x1="14.06" y1="12.884" x2="7.043" y2="12.884"/>
	<line class="st72" x1="9.174" y1="8.337" x2="7.043" y2="8.337"/>
</g>
</svg>
