<?xml version="1.0" encoding="utf-8"?>
<!-- Generator: Adobe Illustrator 22.1.0, SVG Export Plug-In . SVG Version: 6.00 Build 0)  -->
<svg version="1.1" id="Layer_1" xmlns="http://www.w3.org/2000/svg" xmlns:xlink="http://www.w3.org/1999/xlink" x="0px" y="0px"
	 viewBox="0 0 25 25" style="enable-background:new 0 0 25 25;" xml:space="preserve">
<style type="text/css">
	.st72{fill:none;stroke:#758491;stroke-linecap:round;stroke-miterlimit:10;}
	.st155{fill-rule:evenodd;clip-rule:evenodd;fill:none;stroke:#758491;stroke-linecap:round;stroke-miterlimit:10;}
</style>
<g>
	<path class="st155" d="M4.494,9.188c-0.255,0.616-0.442,1.267-0.549,1.943l-1.349,0.622c-0.188,0.087-0.305,0.278-0.297,0.484
		L2.35,13.55c0.008,0.207,0.14,0.388,0.334,0.46l1.393,0.516c0.16,0.666,0.395,1.301,0.697,1.896l-0.726,1.295
		c-0.101,0.18-0.084,0.404,0.044,0.567l0.813,1.032c0.128,0.163,0.341,0.232,0.54,0.176l1.432-0.402
		c0.511,0.437,1.074,0.814,1.676,1.123l-0.864-0.508c0.284,0.189,0.575,0.36,0.872,0.511l0.176,1.476
		c0.025,0.205,0.17,0.376,0.369,0.432l1.264,0.356c0.199,0.056,0.412-0.013,0.54-0.176l0.92-1.167
		c0.675,0.051,1.352,0.023,2.016-0.081l1.011,1.091c0.141,0.152,0.359,0.204,0.553,0.132l1.232-0.455
		c0.194-0.072,0.326-0.253,0.334-0.46l0.059-1.484c0.568-0.349,1.101-0.767,1.585-1.251l1.457,0.288
		c0.203,0.04,0.41-0.046,0.525-0.218l0.729-1.093c0.115-0.172,0.115-0.396,0-0.568l-0.825-1.235
		c0.262-0.633,0.443-1.285,0.548-1.944l1.348-0.623c0.188-0.087,0.305-0.278,0.297-0.485l-0.052-1.313
		c-0.008-0.207-0.14-0.388-0.334-0.46l-1.395-0.515c-0.158-0.654-0.392-1.289-0.698-1.893l0.725-1.297
		c0.101-0.181,0.083-0.404-0.045-0.567l-0.814-1.031c-0.128-0.162-0.341-0.232-0.541-0.176l-1.431,0.403
		c-0.254-0.216-0.523-0.42-0.806-0.609c-0.284-0.189-0.575-0.359-0.872-0.511l-0.176-1.476c-0.025-0.205-0.17-0.376-0.369-0.432
		L14.627,2.52c-0.199-0.056-0.412,0.013-0.54,0.176l-0.92,1.167c-0.675-0.051-1.352-0.024-2.016,0.081L10.14,2.853
		C9.999,2.701,9.781,2.649,9.587,2.721L8.355,3.176c-0.194,0.072-0.326,0.253-0.334,0.46L7.962,5.12
		C7.394,5.469,6.861,5.887,6.377,6.371L4.92,6.083C4.717,6.042,4.51,6.128,4.395,6.3L3.666,7.393c-0.115,0.172-0.115,0.396,0,0.568
		l0.825,1.235C4.23,9.829,4.048,10.481,3.943,11.14"/>
	<polyline class="st72" points="9.404,13.112 11.483,15.191 16.078,10.596 	"/>
</g>
</svg>
