<svg xmlns="http://www.w3.org/2000/svg" width="25" height="25" viewBox="0 0 25 25">
  <defs>
    <style>
      .a, .b, .c {
        fill: none;
        stroke: #758491;
        stroke-linecap: round;
        stroke-miterlimit: 10;
      }

      .b {
        stroke-dasharray: 0 1.5;
      }

      .c {
        stroke-dasharray: 0 1.515;
      }
    </style>
  </defs>
  <title>SW</title>
  <g>
    <g>
      <g>
        <line class="a" x1="0.991" y1="14.134" x2="3.743" y2="14.134"/>
        <path class="a" d="M3.743,10.419H3.52A2.559,2.559,0,0,0,.969,12.971v7.342a2.552,2.552,0,0,0,2.555,2.551l11.181-.009a2.551,2.551,0,0,0,2.549-2.536V18.268"/>
      </g>
      <line class="a" x1="2.833" y1="16.546" x2="4.541" y2="16.546"/>
      <line class="a" x1="11.559" y1="18.492" x2="4.474" y2="18.492"/>
      <line class="a" x1="4.414" y1="20.414" x2="6.576" y2="20.414"/>
      <line class="a" x1="8.711" y1="20.414" x2="13.223" y2="20.414"/>
    </g>
    <g>
      <g>
        <line class="b" x1="7.626" y1="6.221" x2="22.921" y2="6.221"/>
        <path class="c" d="M23.981,13.152a2.839,2.839,0,0,1-2.836,2.822L8.7,15.984A2.838,2.838,0,0,1,5.86,13.145V4.975A2.847,2.847,0,0,1,8.7,2.136H21.192a2.847,2.847,0,0,1,2.839,2.839Z"/>
      </g>
      <line class="a" x1="7.935" y1="8.708" x2="15.536" y2="8.708"/>
      <line class="a" x1="17.966" y1="8.708" x2="21.249" y2="8.708"/>
      <line class="a" x1="17.95" y1="10.873" x2="9.761" y2="10.873"/>
      <line class="a" x1="9.693" y1="12.92" x2="12.099" y2="12.92"/>
      <line class="a" x1="14.475" y1="12.92" x2="19.496" y2="12.92"/>
    </g>
  </g>
</svg>
