<?xml version="1.0" encoding="utf-8"?>
<!-- Generator: Adobe Illustrator 22.1.0, SVG Export Plug-In . SVG Version: 6.00 Build 0)  -->
<svg version="1.1" id="Layer_1" xmlns="http://www.w3.org/2000/svg" xmlns:xlink="http://www.w3.org/1999/xlink" x="0px" y="0px"
	 viewBox="0 0 25 25" style="enable-background:new 0 0 25 25;" xml:space="preserve">
<style type="text/css">
	.st101{fill:none;stroke:#758491;stroke-width:1.5;stroke-linecap:round;stroke-miterlimit:10;}
</style>
<g>
	<path class="st101" d="M12.73,1.177h-0.3c-2.419,0-4.497,0.846-6.004,2.441c-2.244,2.306-2.4,6.498-2.314,8.655l-0.037,2.558
		c0,1.45,1.232,2.72,2.682,2.72h0.465c1.45,0,2.629-1.179,2.629-2.629v-2.575c0-1.45-0.913-2.573-2.629-2.629
		C6.778,9.704,6.383,9.793,6.038,9.939"/>
	<path class="st101" d="M18.962,10.002c-0.346-0.146-0.74-0.235-1.184-0.221c-1.716,0.056-2.629,1.179-2.629,2.629v2.575
		c0,1.45,1.179,2.629,2.629,2.629h0.465c1.45,0,2.682-1.271,2.682-2.72l-0.055-2.621c0.087-2.157-0.07-6.348-2.314-8.655
		c-1.507-1.595-3.585-2.441-6.004-2.441"/>
	<path class="st101" d="M16.17,21.554c1.878-0.428,3.848-2.684,4.417-5.313"/>
	<circle class="st101" cx="14.147" cy="22.116" r="1.707"/>
</g>
</svg>
