<?xml version="1.0" encoding="utf-8"?>
<!-- Generator: Adobe Illustrator 22.1.0, SVG Export Plug-In . SVG Version: 6.00 Build 0)  -->
<svg version="1.1" id="Layer_1" xmlns="http://www.w3.org/2000/svg" xmlns:xlink="http://www.w3.org/1999/xlink" x="0px" y="0px"
	 viewBox="0 0 25 25" style="enable-background:new 0 0 25 25;" xml:space="preserve">
<style type="text/css">
	.st72{fill:none;stroke:#758491;stroke-linecap:round;stroke-miterlimit:10;}
	.st154{fill:none;stroke:#758491;stroke-miterlimit:10;}
</style>
<g>
	<path class="st154" d="M21.057,19.572H3.943c-1.01,0-1.837-0.826-1.837-1.837V7.264c0-1.01,0.826-1.837,1.837-1.837h17.114
		c1.01,0,1.837,0.826,1.837,1.837v10.472C22.894,18.746,22.067,19.572,21.057,19.572z"/>
	<line class="st72" x1="5.676" y1="12.577" x2="6.319" y2="12.577"/>
	<line class="st72" x1="9.002" y1="12.577" x2="9.645" y2="12.577"/>
	<line class="st72" x1="12.328" y1="12.577" x2="12.971" y2="12.577"/>
	<line class="st72" x1="15.654" y1="12.577" x2="16.297" y2="12.577"/>
	<line class="st72" x1="18.98" y1="12.577" x2="19.623" y2="12.577"/>
	<line class="st72" x1="5.676" y1="9.39" x2="6.319" y2="9.39"/>
	<line class="st72" x1="9.002" y1="9.39" x2="9.645" y2="9.39"/>
	<line class="st72" x1="12.328" y1="9.39" x2="12.971" y2="9.39"/>
	<line class="st72" x1="15.654" y1="9.39" x2="16.297" y2="9.39"/>
	<line class="st72" x1="18.98" y1="9.39" x2="19.623" y2="9.39"/>
	<line class="st72" x1="5.74" y1="15.634" x2="6.383" y2="15.634"/>
	<line class="st72" x1="9.013" y1="15.634" x2="16.356" y2="15.634"/>
	<line class="st72" x1="18.929" y1="15.656" x2="19.573" y2="15.656"/>
</g>
</svg>
